<svg xmlns="http://www.w3.org/2000/svg" width="1190.25" viewBox="0 0 1190.25 1683.75" height="1683.75" version="1.0"><defs><clipPath id="a"><path d="M 0 0.40625 L 1189.5 0.40625 L 1189.5 1683.09375 L 0 1683.09375 Z M 0 0.40625"/></clipPath><clipPath id="b"><path d="M 0 246 L 1189.5 246 L 1189.5 1635 L 0 1635 Z M 0 246"/></clipPath></defs><g clip-path="url(#a)" fill="#FFF"><path d="M 0 0.40625 L 1192.25 0.40625 L 1192.25 1694.296875 L 0 1694.296875 Z M 0 0.40625"/><path d="M 0 0.40625 L 1190 0.40625 L 1190 1683.800781 L 0 1683.800781 Z M 0 0.40625"/></g><g clip-path="url(#b)"><path fill="#008037" d="M -197.101562 246.96875 L 1190.300781 246.96875 L 1190.300781 1634.371094 L -197.101562 1634.371094 Z M -197.101562 246.96875"/></g><g fill="#FFDE59"><g><g><path d="M 2.859375 -30.046875 C 2.859375 -39.191406 6.054688 -46.734375 12.453125 -52.671875 C 18.847656 -58.617188 26.160156 -61.59375 34.390625 -61.59375 C 42.617188 -61.59375 49.894531 -58.640625 56.21875 -52.734375 C 62.539062 -46.828125 65.703125 -39.304688 65.703125 -30.171875 C 65.703125 -23.847656 64.0625 -18.226562 60.78125 -13.3125 C 57.507812 -8.394531 53.53125 -4.773438 48.84375 -2.453125 C 44.164062 -0.128906 39.3125 1.03125 34.28125 1.03125 C 29.25 1.03125 24.367188 -0.207031 19.640625 -2.6875 C 14.921875 -5.164062 10.941406 -8.820312 7.703125 -13.65625 C 4.472656 -18.488281 2.859375 -23.953125 2.859375 -30.046875 Z M 26.734375 -21.875 C 29.171875 -20.007812 31.644531 -19.078125 34.15625 -19.078125 C 36.675781 -19.078125 39.191406 -20.03125 41.703125 -21.9375 C 44.222656 -23.84375 45.484375 -26.660156 45.484375 -30.390625 C 45.484375 -34.128906 44.300781 -36.910156 41.9375 -38.734375 C 39.570312 -40.566406 37.019531 -41.484375 34.28125 -41.484375 C 31.539062 -41.484375 28.988281 -40.53125 26.625 -38.625 C 24.257812 -36.71875 23.078125 -33.914062 23.078125 -30.21875 C 23.078125 -26.53125 24.296875 -23.75 26.734375 -21.875 Z M 26.734375 -21.875" transform="translate(473.818 778.88)"/></g></g></g><g fill="#FFDE59"><g><g><path d="M 19.9375 -69.1875 C 18.53125 -68.769531 16.644531 -68.5625 14.28125 -68.5625 C 11.914062 -68.5625 10.046875 -68.789062 8.671875 -69.25 C 7.304688 -69.707031 6.335938 -70.488281 5.765625 -71.59375 C 5.191406 -72.695312 4.847656 -73.6875 4.734375 -74.5625 C 4.628906 -75.4375 4.578125 -76.75 4.578125 -78.5 C 4.578125 -80.25 4.628906 -81.539062 4.734375 -82.375 C 4.847656 -83.21875 5.175781 -84.175781 5.71875 -85.25 C 6.78125 -87.226562 9.710938 -88.21875 14.515625 -88.21875 C 19.085938 -88.21875 21.941406 -87.226562 23.078125 -85.25 C 23.609375 -84.25 23.929688 -83.332031 24.046875 -82.5 C 24.160156 -81.664062 24.21875 -80.410156 24.21875 -78.734375 L 24.21875 -78.046875 C 24.21875 -76.367188 24.160156 -75.109375 24.046875 -74.265625 C 23.929688 -73.429688 23.566406 -72.476562 22.953125 -71.40625 C 22.347656 -70.34375 21.34375 -69.601562 19.9375 -69.1875 Z M 8.84375 -59.875 C 10.257812 -60.332031 12.144531 -60.5625 14.5 -60.5625 C 16.863281 -60.5625 18.734375 -60.332031 20.109375 -59.875 C 21.484375 -59.414062 22.453125 -58.632812 23.015625 -57.53125 C 23.585938 -56.425781 23.929688 -55.4375 24.046875 -54.5625 C 24.160156 -53.6875 24.21875 -52.375 24.21875 -50.625 L 24.21875 -3.546875 C 24.21875 5.367188 21.132812 12.492188 14.96875 17.828125 C 8.800781 23.160156 2.019531 25.828125 -5.375 25.828125 C -7.125 25.828125 -8.414062 25.769531 -9.25 25.65625 C -10.09375 25.539062 -11.046875 25.21875 -12.109375 24.6875 C -14.085938 23.613281 -15.078125 20.828125 -15.078125 16.328125 C -15.078125 11.835938 -14.257812 9.019531 -12.625 7.875 C -10.988281 6.738281 -8.78125 6.171875 -6 6.171875 C -3.21875 6.171875 -0.757812 5.40625 1.375 3.875 C 3.507812 2.351562 4.578125 -0.382812 4.578125 -4.34375 L 4.578125 -51.421875 C 4.578125 -54.085938 4.9375 -56.046875 5.65625 -57.296875 C 6.375 -58.554688 7.4375 -59.414062 8.84375 -59.875 Z M 8.84375 -59.875" transform="translate(538.944 778.88)"/></g></g></g><g fill="#FFDE59"><g><g><path d="M 2.859375 -30.046875 C 2.859375 -39.191406 6.054688 -46.734375 12.453125 -52.671875 C 18.847656 -58.617188 26.160156 -61.59375 34.390625 -61.59375 C 42.617188 -61.59375 49.894531 -58.640625 56.21875 -52.734375 C 62.539062 -46.828125 65.703125 -39.304688 65.703125 -30.171875 C 65.703125 -23.847656 64.0625 -18.226562 60.78125 -13.3125 C 57.507812 -8.394531 53.53125 -4.773438 48.84375 -2.453125 C 44.164062 -0.128906 39.3125 1.03125 34.28125 1.03125 C 29.25 1.03125 24.367188 -0.207031 19.640625 -2.6875 C 14.921875 -5.164062 10.941406 -8.820312 7.703125 -13.65625 C 4.472656 -18.488281 2.859375 -23.953125 2.859375 -30.046875 Z M 26.734375 -21.875 C 29.171875 -20.007812 31.644531 -19.078125 34.15625 -19.078125 C 36.675781 -19.078125 39.191406 -20.03125 41.703125 -21.9375 C 44.222656 -23.84375 45.484375 -26.660156 45.484375 -30.390625 C 45.484375 -34.128906 44.300781 -36.910156 41.9375 -38.734375 C 39.570312 -40.566406 37.019531 -41.484375 34.28125 -41.484375 C 31.539062 -41.484375 28.988281 -40.53125 26.625 -38.625 C 24.257812 -36.71875 23.078125 -33.914062 23.078125 -30.21875 C 23.078125 -26.53125 24.296875 -23.75 26.734375 -21.875 Z M 26.734375 -21.875" transform="translate(564.309 778.88)"/></g></g></g><g fill="#FFDE59"><g><g><path d="M 39.53125 -40 L 32.109375 -40.453125 L 32.109375 -24.6875 C 32.109375 -22.625 32.429688 -21.132812 33.078125 -20.21875 C 33.722656 -19.3125 34.941406 -18.859375 36.734375 -18.859375 C 38.523438 -18.859375 39.894531 -18.800781 40.84375 -18.6875 C 41.800781 -18.570312 42.8125 -18.207031 43.875 -17.59375 C 45.625 -16.601562 46.5 -14.050781 46.5 -9.9375 C 46.5 -5.144531 45.4375 -2.210938 43.3125 -1.140625 C 42.164062 -0.609375 41.15625 -0.285156 40.28125 -0.171875 C 39.40625 -0.0546875 38.128906 0 36.453125 0 C 28.523438 0 22.503906 -1.785156 18.390625 -5.359375 C 14.273438 -8.941406 12.21875 -15 12.21875 -23.53125 L 12.21875 -40.453125 C 10.78125 -40.222656 9.222656 -40.109375 7.546875 -40.109375 C 5.867188 -40.109375 4.476562 -40.753906 3.375 -42.046875 C 2.269531 -43.347656 1.71875 -45.554688 1.71875 -48.671875 C 1.71875 -51.796875 1.90625 -54.0625 2.28125 -55.46875 C 2.664062 -56.882812 3.203125 -57.894531 3.890625 -58.5 C 5.109375 -59.488281 6.628906 -59.984375 8.453125 -59.984375 L 12.21875 -59.53125 L 12.21875 -71.296875 C 12.21875 -73.054688 12.273438 -74.351562 12.390625 -75.1875 C 12.503906 -76.019531 12.867188 -76.929688 13.484375 -77.921875 C 14.472656 -79.828125 17.40625 -80.78125 22.28125 -80.78125 C 27.457031 -80.78125 30.539062 -79.375 31.53125 -76.5625 C 31.914062 -75.34375 32.109375 -73.398438 32.109375 -70.734375 L 32.109375 -59.53125 C 35.460938 -59.832031 37.992188 -59.984375 39.703125 -59.984375 C 41.421875 -59.984375 42.71875 -59.925781 43.59375 -59.8125 C 44.46875 -59.695312 45.476562 -59.335938 46.625 -58.734375 C 48.601562 -57.742188 49.59375 -54.8125 49.59375 -49.9375 C 49.59375 -45.132812 48.5625 -42.203125 46.5 -41.140625 C 45.363281 -40.597656 44.351562 -40.269531 43.46875 -40.15625 C 42.59375 -40.050781 41.28125 -40 39.53125 -40 Z M 39.53125 -40" transform="translate(473.818 892.857)"/></g></g></g><g fill="#FFDE59"><g><g><path d="M 4.578125 -50.15625 C 4.578125 -51.914062 4.628906 -53.234375 4.734375 -54.109375 C 4.847656 -54.984375 5.175781 -55.992188 5.71875 -57.140625 C 6.78125 -59.117188 9.75 -60.109375 14.625 -60.109375 C 18.28125 -60.109375 20.867188 -59.457031 22.390625 -58.15625 C 23.691406 -57.09375 24.378906 -55.457031 24.453125 -53.25 C 24.523438 -52.488281 24.5625 -51.382812 24.5625 -49.9375 L 24.5625 -9.9375 C 24.5625 -8.1875 24.503906 -6.875 24.390625 -6 C 24.273438 -5.125 23.914062 -4.113281 23.3125 -2.96875 C 22.320312 -0.988281 19.390625 0 14.515625 0 C 9.710938 0 6.78125 -1.023438 5.71875 -3.078125 C 5.175781 -4.222656 4.847656 -5.210938 4.734375 -6.046875 C 4.628906 -6.890625 4.578125 -8.226562 4.578125 -10.0625 Z M 23.359375 -71.359375 C 22.796875 -70.253906 21.789062 -69.472656 20.34375 -69.015625 C 18.894531 -68.554688 16.96875 -68.328125 14.5625 -68.328125 C 12.164062 -68.328125 10.242188 -68.554688 8.796875 -69.015625 C 7.347656 -69.472656 6.335938 -70.269531 5.765625 -71.40625 C 5.191406 -72.550781 4.847656 -73.5625 4.734375 -74.4375 C 4.628906 -75.320312 4.578125 -76.640625 4.578125 -78.390625 C 4.578125 -80.140625 4.628906 -81.453125 4.734375 -82.328125 C 4.847656 -83.203125 5.175781 -84.175781 5.71875 -85.25 C 6.78125 -87.300781 9.75 -88.328125 14.625 -88.328125 C 19.425781 -88.328125 22.320312 -87.300781 23.3125 -85.25 C 23.914062 -84.101562 24.273438 -83.09375 24.390625 -82.21875 C 24.503906 -81.34375 24.5625 -80.023438 24.5625 -78.265625 C 24.5625 -76.515625 24.503906 -75.203125 24.390625 -74.328125 C 24.273438 -73.453125 23.929688 -72.460938 23.359375 -71.359375 Z M 23.359375 -71.359375" transform="translate(521.691 892.857)"/></g></g></g><g fill="#FFDE59"><g><g><path d="M 24.21875 -52.21875 C 27.800781 -57.625 32.109375 -60.328125 37.140625 -60.328125 C 44.910156 -60.328125 50.695312 -57.015625 54.5 -50.390625 C 55.34375 -51.535156 56.351562 -52.734375 57.53125 -53.984375 C 58.707031 -55.242188 60.59375 -56.613281 63.1875 -58.09375 C 65.78125 -59.582031 68.445312 -60.328125 71.1875 -60.328125 C 77.28125 -60.328125 82.382812 -57.984375 86.5 -53.296875 C 90.613281 -48.617188 92.671875 -40.867188 92.671875 -30.046875 L 92.671875 -10.0625 C 92.671875 -8.300781 92.613281 -6.984375 92.5 -6.109375 C 92.382812 -5.234375 92.019531 -4.222656 91.40625 -3.078125 C 90.414062 -1.023438 87.484375 0 82.609375 0 C 77.816406 0 74.882812 -1.066406 73.8125 -3.203125 C 73.28125 -4.335938 72.957031 -5.34375 72.84375 -6.21875 C 72.726562 -7.101562 72.671875 -8.421875 72.671875 -10.171875 L 72.671875 -30.171875 C 72.671875 -36.796875 70.3125 -40.109375 65.59375 -40.109375 C 62.925781 -40.109375 61.113281 -39.226562 60.15625 -37.46875 C 59.207031 -35.71875 58.734375 -33.242188 58.734375 -30.046875 L 58.734375 -10.0625 C 58.734375 -8.226562 58.675781 -6.890625 58.5625 -6.046875 C 58.445312 -5.210938 58.082031 -4.222656 57.46875 -3.078125 C 56.40625 -1.023438 53.4375 0 48.5625 0 C 43.757812 0 40.828125 -1.066406 39.765625 -3.203125 C 39.234375 -4.335938 38.910156 -5.34375 38.796875 -6.21875 C 38.679688 -7.101562 38.625 -8.421875 38.625 -10.171875 L 38.625 -30.171875 C 38.625 -36.796875 36.257812 -40.109375 31.53125 -40.109375 C 26.96875 -40.109375 24.6875 -36.796875 24.6875 -30.171875 L 24.6875 -9.9375 C 24.6875 -8.1875 24.628906 -6.875 24.515625 -6 C 24.398438 -5.125 24.035156 -4.113281 23.421875 -2.96875 C 22.273438 -0.988281 19.304688 0 14.515625 0 C 9.710938 0 6.78125 -1.023438 5.71875 -3.078125 C 5.175781 -4.222656 4.847656 -5.210938 4.734375 -6.046875 C 4.628906 -6.890625 4.578125 -8.226562 4.578125 -10.0625 L 4.578125 -50.28125 C 4.578125 -52.03125 4.628906 -53.34375 4.734375 -54.21875 C 4.847656 -55.09375 5.210938 -56.066406 5.828125 -57.140625 C 6.972656 -59.191406 9.675781 -60.21875 13.9375 -60.21875 C 18.207031 -60.21875 20.988281 -59.53125 22.28125 -58.15625 C 23.570312 -56.789062 24.21875 -54.8125 24.21875 -52.21875 Z M 24.21875 -52.21875" transform="translate(547.399 892.857)"/></g></g></g><g fill="#FFDE59"><g><g><path d="M 4.578125 -50.15625 C 4.578125 -51.914062 4.628906 -53.234375 4.734375 -54.109375 C 4.847656 -54.984375 5.175781 -55.992188 5.71875 -57.140625 C 6.78125 -59.117188 9.75 -60.109375 14.625 -60.109375 C 18.28125 -60.109375 20.867188 -59.457031 22.390625 -58.15625 C 23.691406 -57.09375 24.378906 -55.457031 24.453125 -53.25 C 24.523438 -52.488281 24.5625 -51.382812 24.5625 -49.9375 L 24.5625 -9.9375 C 24.5625 -8.1875 24.503906 -6.875 24.390625 -6 C 24.273438 -5.125 23.914062 -4.113281 23.3125 -2.96875 C 22.320312 -0.988281 19.390625 0 14.515625 0 C 9.710938 0 6.78125 -1.023438 5.71875 -3.078125 C 5.175781 -4.222656 4.847656 -5.210938 4.734375 -6.046875 C 4.628906 -6.890625 4.578125 -8.226562 4.578125 -10.0625 Z M 23.359375 -71.359375 C 22.796875 -70.253906 21.789062 -69.472656 20.34375 -69.015625 C 18.894531 -68.554688 16.96875 -68.328125 14.5625 -68.328125 C 12.164062 -68.328125 10.242188 -68.554688 8.796875 -69.015625 C 7.347656 -69.472656 6.335938 -70.269531 5.765625 -71.40625 C 5.191406 -72.550781 4.847656 -73.5625 4.734375 -74.4375 C 4.628906 -75.320312 4.578125 -76.640625 4.578125 -78.390625 C 4.578125 -80.140625 4.628906 -81.453125 4.734375 -82.328125 C 4.847656 -83.203125 5.175781 -84.175781 5.71875 -85.25 C 6.78125 -87.300781 9.75 -88.328125 14.625 -88.328125 C 19.425781 -88.328125 22.320312 -87.300781 23.3125 -85.25 C 23.914062 -84.101562 24.273438 -83.09375 24.390625 -82.21875 C 24.503906 -81.34375 24.5625 -80.023438 24.5625 -78.265625 C 24.5625 -76.515625 24.503906 -75.203125 24.390625 -74.328125 C 24.273438 -73.453125 23.929688 -72.460938 23.359375 -71.359375 Z M 23.359375 -71.359375" transform="translate(641.203 892.857)"/></g></g></g><g fill="#FFDE59"><g><g><path d="M 4.578125 -78.5 C 4.578125 -80.25 4.628906 -81.5625 4.734375 -82.4375 C 4.847656 -83.3125 5.175781 -84.320312 5.71875 -85.46875 C 6.78125 -87.53125 9.75 -88.5625 14.625 -88.5625 C 19.269531 -88.5625 22.164062 -87.53125 23.3125 -85.46875 C 23.914062 -84.320312 24.273438 -83.289062 24.390625 -82.375 C 24.503906 -81.46875 24.5625 -80.140625 24.5625 -78.390625 L 24.5625 -25.484375 C 24.5625 -22.742188 24.789062 -21.007812 25.25 -20.28125 C 25.707031 -19.5625 26.71875 -19.203125 28.28125 -19.203125 C 29.84375 -19.203125 30.890625 -19.144531 31.421875 -19.03125 C 31.953125 -18.914062 32.597656 -18.585938 33.359375 -18.046875 C 34.890625 -17.054688 35.65625 -14.351562 35.65625 -9.9375 C 35.65625 -5.144531 34.890625 -2.210938 33.359375 -1.140625 C 31.378906 0.234375 26.660156 0.460938 19.203125 -0.453125 C 13.328125 -1.210938 9.515625 -3.15625 7.765625 -6.28125 C 5.640625 -10.019531 4.578125 -15.960938 4.578125 -24.109375 Z M 4.578125 -78.5" transform="translate(666.91 892.857)"/></g></g></g><g fill="#FFDE59"><g><g><path d="M 62.625 -37.296875 C 62.625 -32.617188 61.457031 -29.15625 59.125 -26.90625 C 56.800781 -24.65625 54.234375 -23.53125 51.421875 -23.53125 L 24.34375 -23.53125 C 24.34375 -21.40625 25.597656 -19.617188 28.109375 -18.171875 C 30.617188 -16.722656 33.132812 -16 35.65625 -16 C 40.070312 -16 43.535156 -16.457031 46.046875 -17.375 L 47.3125 -17.828125 C 49.132812 -18.660156 50.65625 -19.078125 51.875 -19.078125 C 54.3125 -19.078125 56.40625 -17.363281 58.15625 -13.9375 C 59.144531 -11.882812 59.640625 -10.132812 59.640625 -8.6875 C 59.640625 -1.90625 51.53125 1.484375 35.3125 1.484375 C 29.675781 1.484375 24.664062 0.515625 20.28125 -1.421875 C 15.90625 -3.367188 12.5 -5.941406 10.0625 -9.140625 C 5.257812 -15.304688 2.859375 -22.203125 2.859375 -29.828125 C 2.859375 -39.421875 5.960938 -47.09375 12.171875 -52.84375 C 18.378906 -58.59375 26.128906 -61.46875 35.421875 -61.46875 C 46.015625 -61.46875 53.785156 -57.738281 58.734375 -50.28125 C 61.328125 -46.3125 62.625 -41.984375 62.625 -37.296875 Z M 38.5 -33.9375 C 41.394531 -33.9375 42.84375 -35.15625 42.84375 -37.59375 C 42.84375 -39.34375 42.175781 -40.75 40.84375 -41.8125 C 39.507812 -42.882812 37.601562 -43.421875 35.125 -43.421875 C 32.65625 -43.421875 30.203125 -42.410156 27.765625 -40.390625 C 25.328125 -38.367188 24.109375 -36.21875 24.109375 -33.9375 Z M 38.5 -33.9375" transform="translate(700.845 892.857)"/></g></g></g><g fill="#FFDE59"><g><g><path d="M 37.9375 -59.984375 C 45.550781 -59.984375 51.890625 -57.085938 56.953125 -51.296875 C 62.023438 -45.515625 64.5625 -38.429688 64.5625 -30.046875 L 64.5625 -9.9375 C 64.5625 -8.1875 64.503906 -6.875 64.390625 -6 C 64.273438 -5.125 63.910156 -4.113281 63.296875 -2.96875 C 62.304688 -0.988281 59.375 0 54.5 0 C 49.851562 0 46.960938 -0.988281 45.828125 -2.96875 C 45.210938 -4.113281 44.847656 -5.140625 44.734375 -6.046875 C 44.617188 -6.960938 44.5625 -8.335938 44.5625 -10.171875 L 44.5625 -30.171875 C 44.5625 -33.285156 43.6875 -35.71875 41.9375 -37.46875 C 40.1875 -39.226562 37.957031 -40.109375 35.25 -40.109375 C 32.539062 -40.109375 30.160156 -39.285156 28.109375 -37.640625 C 26.054688 -36.003906 24.875 -34.160156 24.5625 -32.109375 L 24.5625 -9.9375 C 24.5625 -8.1875 24.503906 -6.875 24.390625 -6 C 24.273438 -5.125 23.914062 -4.113281 23.3125 -2.96875 C 22.320312 -0.988281 19.390625 0 14.515625 0 C 9.710938 0 6.78125 -1.023438 5.71875 -3.078125 C 5.175781 -4.222656 4.847656 -5.210938 4.734375 -6.046875 C 4.628906 -6.890625 4.578125 -8.226562 4.578125 -10.0625 L 4.578125 -78.390625 C 4.578125 -80.140625 4.628906 -81.453125 4.734375 -82.328125 C 4.847656 -83.203125 5.175781 -84.175781 5.71875 -85.25 C 6.78125 -87.300781 9.75 -88.328125 14.625 -88.328125 C 19.425781 -88.328125 22.320312 -87.300781 23.3125 -85.25 C 23.914062 -84.101562 24.273438 -83.09375 24.390625 -82.21875 C 24.503906 -81.34375 24.5625 -80.023438 24.5625 -78.265625 L 24.5625 -53.015625 C 28.375 -57.660156 32.832031 -59.984375 37.9375 -59.984375 Z M 37.9375 -59.984375" transform="translate(762.886 892.857)"/></g></g></g><g fill="#FFDE59"><g><g><path d="M 4.578125 -50.15625 C 4.578125 -51.914062 4.628906 -53.234375 4.734375 -54.109375 C 4.847656 -54.984375 5.175781 -55.992188 5.71875 -57.140625 C 6.78125 -59.117188 9.75 -60.109375 14.625 -60.109375 C 18.28125 -60.109375 20.867188 -59.457031 22.390625 -58.15625 C 23.691406 -57.09375 24.378906 -55.457031 24.453125 -53.25 C 24.523438 -52.488281 24.5625 -51.382812 24.5625 -49.9375 L 24.5625 -9.9375 C 24.5625 -8.1875 24.503906 -6.875 24.390625 -6 C 24.273438 -5.125 23.914062 -4.113281 23.3125 -2.96875 C 22.320312 -0.988281 19.390625 0 14.515625 0 C 9.710938 0 6.78125 -1.023438 5.71875 -3.078125 C 5.175781 -4.222656 4.847656 -5.210938 4.734375 -6.046875 C 4.628906 -6.890625 4.578125 -8.226562 4.578125 -10.0625 Z M 23.359375 -71.359375 C 22.796875 -70.253906 21.789062 -69.472656 20.34375 -69.015625 C 18.894531 -68.554688 16.96875 -68.328125 14.5625 -68.328125 C 12.164062 -68.328125 10.242188 -68.554688 8.796875 -69.015625 C 7.347656 -69.472656 6.335938 -70.269531 5.765625 -71.40625 C 5.191406 -72.550781 4.847656 -73.5625 4.734375 -74.4375 C 4.628906 -75.320312 4.578125 -76.640625 4.578125 -78.390625 C 4.578125 -80.140625 4.628906 -81.453125 4.734375 -82.328125 C 4.847656 -83.203125 5.175781 -84.175781 5.71875 -85.25 C 6.78125 -87.300781 9.75 -88.328125 14.625 -88.328125 C 19.425781 -88.328125 22.320312 -87.300781 23.3125 -85.25 C 23.914062 -84.101562 24.273438 -83.09375 24.390625 -82.21875 C 24.503906 -81.34375 24.5625 -80.023438 24.5625 -78.265625 C 24.5625 -76.515625 24.503906 -75.203125 24.390625 -74.328125 C 24.273438 -73.453125 23.929688 -72.460938 23.359375 -71.359375 Z M 23.359375 -71.359375" transform="translate(828.584 892.857)"/></g></g></g><g fill="#FFDE59"><g><g><path d="M 38.046875 -60.21875 C 45.671875 -60.21875 52.015625 -57.300781 57.078125 -51.46875 C 62.140625 -45.644531 64.671875 -38.546875 64.671875 -30.171875 L 64.671875 -10.0625 C 64.671875 -8.300781 64.613281 -6.984375 64.5 -6.109375 C 64.382812 -5.234375 64.0625 -4.265625 63.53125 -3.203125 C 62.46875 -1.140625 59.5 -0.109375 54.625 -0.109375 C 49.207031 -0.109375 46.082031 -1.519531 45.25 -4.34375 C 44.789062 -5.632812 44.5625 -7.578125 44.5625 -10.171875 L 44.5625 -30.28125 C 44.5625 -33.40625 43.664062 -35.84375 41.875 -37.59375 C 40.082031 -39.34375 37.679688 -40.21875 34.671875 -40.21875 C 31.671875 -40.21875 29.234375 -39.300781 27.359375 -37.46875 C 25.492188 -35.644531 24.5625 -33.25 24.5625 -30.28125 L 24.5625 -10.0625 C 24.5625 -8.300781 24.503906 -6.984375 24.390625 -6.109375 C 24.273438 -5.234375 23.914062 -4.265625 23.3125 -3.203125 C 22.320312 -1.140625 19.390625 -0.109375 14.515625 -0.109375 C 9.710938 -0.109375 6.78125 -1.140625 5.71875 -3.203125 C 5.175781 -4.335938 4.847656 -5.34375 4.734375 -6.21875 C 4.628906 -7.101562 4.578125 -8.421875 4.578125 -10.171875 L 4.578125 -50.625 C 4.578125 -52.300781 4.628906 -53.578125 4.734375 -54.453125 C 4.847656 -55.328125 5.210938 -56.296875 5.828125 -57.359375 C 6.890625 -59.265625 9.820312 -60.21875 14.625 -60.21875 C 19.269531 -60.21875 22.128906 -59.34375 23.203125 -57.59375 C 23.960938 -56.289062 24.34375 -54.726562 24.34375 -52.90625 C 24.644531 -53.4375 25.328125 -54.195312 26.390625 -55.1875 C 27.460938 -56.175781 28.492188 -56.976562 29.484375 -57.59375 C 32.066406 -59.34375 34.921875 -60.21875 38.046875 -60.21875 Z M 38.046875 -60.21875" transform="translate(854.291 892.857)"/></g></g></g><g fill="#FFDE59"><g><g><path d="M 22.28125 -18.859375 C 23.570312 -17.554688 24.21875 -14.890625 24.21875 -10.859375 L 24.21875 -10.390625 C 24.21875 -8.566406 24.160156 -7.21875 24.046875 -6.34375 C 23.929688 -5.46875 23.535156 -4.421875 22.859375 -3.203125 C 21.710938 -0.992188 18.832031 0.109375 14.21875 0.109375 C 9.613281 0.109375 6.566406 -0.613281 5.078125 -2.0625 C 3.597656 -3.507812 2.859375 -6.25 2.859375 -10.28125 L 2.859375 -10.734375 C 2.859375 -12.492188 2.914062 -13.828125 3.03125 -14.734375 C 3.144531 -15.648438 3.503906 -16.679688 4.109375 -17.828125 C 5.253906 -20.109375 8.128906 -21.25 12.734375 -21.25 C 17.347656 -21.25 20.53125 -20.453125 22.28125 -18.859375 Z M 22.28125 -18.859375" transform="translate(920.103 892.857)"/></g></g></g><g fill="#FF5757"><g><g><path d="M 40.75 -32.390625 C 42.726562 -31.679688 43.71875 -30.734375 43.71875 -29.546875 C 43.71875 -29.160156 43.539062 -28.4375 43.1875 -27.375 L 34.65625 -2.703125 C 34.601562 -2.503906 34.5 -2.253906 34.34375 -1.953125 C 34.195312 -1.660156 33.804688 -1.269531 33.171875 -0.78125 C 32.535156 -0.289062 31.78125 -0.046875 30.90625 -0.046875 C 30.03125 -0.046875 29.273438 -0.289062 28.640625 -0.78125 C 28.003906 -1.269531 27.582031 -1.75 27.375 -2.21875 L 22.171875 -17.546875 C 18.878906 -7.835938 17.203125 -2.890625 17.140625 -2.703125 C 17.085938 -2.523438 16.957031 -2.273438 16.75 -1.953125 C 16.539062 -1.628906 16.304688 -1.332031 16.046875 -1.0625 C 15.359375 -0.382812 14.539062 -0.046875 13.59375 -0.046875 C 12.644531 -0.046875 11.867188 -0.265625 11.265625 -0.703125 C 10.660156 -1.148438 10.253906 -1.597656 10.046875 -2.046875 L 9.734375 -2.703125 L 1.15625 -27.375 C 0.832031 -28.351562 0.671875 -29.078125 0.671875 -29.546875 C 0.671875 -30.734375 1.660156 -31.664062 3.640625 -32.34375 C 4.503906 -32.644531 5.28125 -32.796875 5.96875 -32.796875 C 6.664062 -32.796875 7.195312 -32.554688 7.5625 -32.078125 C 7.9375 -31.609375 8.273438 -30.882812 8.578125 -29.90625 L 13.46875 -15.0625 L 18.3125 -29.6875 C 18.726562 -30.925781 19.484375 -31.785156 20.578125 -32.265625 C 21.046875 -32.472656 21.65625 -32.578125 22.40625 -32.578125 C 23.164062 -32.578125 23.867188 -32.332031 24.515625 -31.84375 C 25.171875 -31.351562 25.59375 -30.867188 25.78125 -30.390625 L 30.890625 -14.96875 L 35.765625 -29.90625 C 36.003906 -30.582031 36.195312 -31.082031 36.34375 -31.40625 C 36.5 -31.738281 36.773438 -32.0625 37.171875 -32.375 C 37.566406 -32.6875 38.0625 -32.84375 38.65625 -32.84375 C 39.25 -32.84375 39.945312 -32.691406 40.75 -32.390625 Z M 40.75 -32.390625" transform="translate(473.818 962.024)"/></g></g></g><g fill="#FF5757"><g><g><path d="M 9.640625 -7.859375 L 23.328125 -7.859375 C 24.015625 -7.859375 24.523438 -7.835938 24.859375 -7.796875 C 25.203125 -7.753906 25.597656 -7.613281 26.046875 -7.375 C 26.835938 -6.957031 27.234375 -5.800781 27.234375 -3.90625 C 27.234375 -1.832031 26.6875 -0.617188 25.59375 -0.265625 C 25.09375 -0.0859375 24.320312 0 23.28125 0 L 5.6875 0 C 3.613281 0 2.398438 -0.5625 2.046875 -1.6875 C 1.867188 -2.164062 1.78125 -2.921875 1.78125 -3.953125 L 1.78125 -28.65625 C 1.78125 -30.164062 2.0625 -31.195312 2.625 -31.75 C 3.1875 -32.300781 4.253906 -32.578125 5.828125 -32.578125 L 23.328125 -32.578125 C 24.015625 -32.578125 24.523438 -32.550781 24.859375 -32.5 C 25.203125 -32.457031 25.597656 -32.316406 26.046875 -32.078125 C 26.835938 -31.671875 27.234375 -30.519531 27.234375 -28.625 C 27.234375 -26.539062 26.6875 -25.320312 25.59375 -24.96875 C 25.09375 -24.789062 24.320312 -24.703125 23.28125 -24.703125 L 9.640625 -24.703125 L 9.640625 -20.21875 L 18.4375 -20.21875 C 19.125 -20.21875 19.632812 -20.191406 19.96875 -20.140625 C 20.3125 -20.097656 20.707031 -19.960938 21.15625 -19.734375 C 21.957031 -19.316406 22.359375 -18.160156 22.359375 -16.265625 C 22.359375 -14.191406 21.789062 -12.976562 20.65625 -12.625 C 20.15625 -12.445312 19.390625 -12.359375 18.359375 -12.359375 L 9.640625 -12.359375 Z M 9.640625 -7.859375" transform="translate(519.535 962.024)"/></g></g></g><g fill="#FF5757"><g><g><path d="M 24.96875 -17.46875 C 26.71875 -15.394531 27.59375 -13.066406 27.59375 -10.484375 C 27.53125 -7.523438 26.515625 -5.046875 24.546875 -3.046875 C 22.578125 -1.046875 20.1875 -0.046875 17.375 -0.046875 L 5.6875 -0.046875 C 3.613281 -0.046875 2.398438 -0.609375 2.046875 -1.734375 C 1.867188 -2.234375 1.78125 -3.003906 1.78125 -4.046875 L 1.78125 -28.703125 C 1.78125 -29.410156 1.800781 -29.925781 1.84375 -30.25 C 1.882812 -30.582031 2.023438 -30.972656 2.265625 -31.421875 C 2.679688 -32.210938 3.835938 -32.609375 5.734375 -32.609375 L 16.9375 -32.609375 C 19.65625 -32.609375 21.9375 -31.660156 23.78125 -29.765625 C 25.695312 -27.847656 26.65625 -25.539062 26.65625 -22.84375 C 26.65625 -20.882812 26.09375 -19.09375 24.96875 -17.46875 Z M 19.734375 -10.9375 C 19.734375 -11.644531 19.648438 -12.207031 19.484375 -12.625 C 19.316406 -13.039062 19.039062 -13.335938 18.65625 -13.515625 C 18.070312 -13.742188 17.242188 -13.859375 16.171875 -13.859375 C 15.109375 -13.859375 14.304688 -14.066406 13.765625 -14.484375 C 13.234375 -14.898438 12.96875 -15.75 12.96875 -17.03125 C 12.96875 -18.320312 13.242188 -19.175781 13.796875 -19.59375 C 14.347656 -20.007812 15.257812 -20.21875 16.53125 -20.21875 C 17.71875 -20.21875 18.425781 -20.53125 18.65625 -21.15625 C 18.75 -21.476562 18.796875 -22.007812 18.796875 -22.75 C 18.796875 -23.488281 18.550781 -24.003906 18.0625 -24.296875 C 17.570312 -24.597656 16.835938 -24.75 15.859375 -24.75 L 9.640625 -24.75 L 9.640625 -7.90625 L 16.9375 -7.90625 C 18.800781 -7.90625 19.734375 -8.914062 19.734375 -10.9375 Z M 19.734375 -10.9375" transform="translate(549.213 962.024)"/></g></g></g><g fill="#FF5757"><g><g><path d="M 5.734375 -32.609375 L 13.953125 -32.578125 C 18.242188 -32.578125 22.019531 -31.023438 25.28125 -27.921875 C 28.539062 -24.828125 30.171875 -21.019531 30.171875 -16.5 C 30.171875 -11.988281 28.578125 -8.117188 25.390625 -4.890625 C 22.210938 -1.660156 18.351562 -0.046875 13.8125 -0.046875 L 5.6875 -0.046875 C 3.882812 -0.046875 2.757812 -0.414062 2.3125 -1.15625 C 1.957031 -1.78125 1.78125 -2.726562 1.78125 -4 L 1.78125 -28.703125 C 1.78125 -29.410156 1.800781 -29.925781 1.84375 -30.25 C 1.882812 -30.582031 2.023438 -30.972656 2.265625 -31.421875 C 2.679688 -32.210938 3.835938 -32.609375 5.734375 -32.609375 Z M 13.953125 -7.90625 C 16.085938 -7.90625 18.015625 -8.695312 19.734375 -10.28125 C 21.453125 -11.875 22.3125 -13.867188 22.3125 -16.265625 C 22.3125 -18.660156 21.472656 -20.664062 19.796875 -22.28125 C 18.117188 -23.894531 16.15625 -24.703125 13.90625 -24.703125 L 9.640625 -24.703125 L 9.640625 -7.90625 Z M 13.953125 -7.90625" transform="translate(591.82 962.024)"/></g></g></g><g fill="#FF5757"><g><g><path d="M 9.640625 -7.859375 L 23.328125 -7.859375 C 24.015625 -7.859375 24.523438 -7.835938 24.859375 -7.796875 C 25.203125 -7.753906 25.597656 -7.613281 26.046875 -7.375 C 26.835938 -6.957031 27.234375 -5.800781 27.234375 -3.90625 C 27.234375 -1.832031 26.6875 -0.617188 25.59375 -0.265625 C 25.09375 -0.0859375 24.320312 0 23.28125 0 L 5.6875 0 C 3.613281 0 2.398438 -0.5625 2.046875 -1.6875 C 1.867188 -2.164062 1.78125 -2.921875 1.78125 -3.953125 L 1.78125 -28.65625 C 1.78125 -30.164062 2.0625 -31.195312 2.625 -31.75 C 3.1875 -32.300781 4.253906 -32.578125 5.828125 -32.578125 L 23.328125 -32.578125 C 24.015625 -32.578125 24.523438 -32.550781 24.859375 -32.5 C 25.203125 -32.457031 25.597656 -32.316406 26.046875 -32.078125 C 26.835938 -31.671875 27.234375 -30.519531 27.234375 -28.625 C 27.234375 -26.539062 26.6875 -25.320312 25.59375 -24.96875 C 25.09375 -24.789062 24.320312 -24.703125 23.28125 -24.703125 L 9.640625 -24.703125 L 9.640625 -20.21875 L 18.4375 -20.21875 C 19.125 -20.21875 19.632812 -20.191406 19.96875 -20.140625 C 20.3125 -20.097656 20.707031 -19.960938 21.15625 -19.734375 C 21.957031 -19.316406 22.359375 -18.160156 22.359375 -16.265625 C 22.359375 -14.191406 21.789062 -12.976562 20.65625 -12.625 C 20.15625 -12.445312 19.390625 -12.359375 18.359375 -12.359375 L 9.640625 -12.359375 Z M 9.640625 -7.859375" transform="translate(624.43 962.024)"/></g></g></g><g fill="#FF5757"><g><g><path d="M 31.5 -32.078125 C 33.25 -31.222656 34.125 -30.273438 34.125 -29.234375 C 34.125 -28.765625 33.90625 -28.054688 33.46875 -27.109375 L 21.203125 -2.21875 C 20.867188 -1.570312 20.367188 -1.046875 19.703125 -0.640625 C 19.035156 -0.242188 18.347656 -0.046875 17.640625 -0.046875 L 17.203125 -0.046875 C 16.460938 -0.046875 15.757812 -0.242188 15.09375 -0.640625 C 14.425781 -1.046875 13.925781 -1.570312 13.59375 -2.21875 L 1.328125 -27.109375 C 0.890625 -28.054688 0.671875 -28.765625 0.671875 -29.234375 C 0.671875 -30.273438 1.539062 -31.222656 3.28125 -32.078125 C 4.257812 -32.585938 5.007812 -32.84375 5.53125 -32.84375 C 6.050781 -32.84375 6.441406 -32.78125 6.703125 -32.65625 C 6.972656 -32.539062 7.226562 -32.335938 7.46875 -32.046875 C 7.726562 -31.679688 7.96875 -31.285156 8.1875 -30.859375 C 8.414062 -30.429688 8.988281 -29.203125 9.90625 -27.171875 C 10.820312 -25.140625 11.804688 -22.984375 12.859375 -20.703125 C 13.910156 -18.421875 14.898438 -16.265625 15.828125 -14.234375 C 16.765625 -12.210938 17.296875 -11.082031 17.421875 -10.84375 L 26.3125 -30.3125 C 26.539062 -30.875 26.742188 -31.316406 26.921875 -31.640625 C 27.460938 -32.441406 28.117188 -32.84375 28.890625 -32.84375 C 29.660156 -32.84375 30.53125 -32.585938 31.5 -32.078125 Z M 31.5 -32.078125" transform="translate(654.11 962.024)"/></g></g></g><g fill="#FF5757"><g><g><path d="M 9.640625 -7.859375 L 23.328125 -7.859375 C 24.015625 -7.859375 24.523438 -7.835938 24.859375 -7.796875 C 25.203125 -7.753906 25.597656 -7.613281 26.046875 -7.375 C 26.835938 -6.957031 27.234375 -5.800781 27.234375 -3.90625 C 27.234375 -1.832031 26.6875 -0.617188 25.59375 -0.265625 C 25.09375 -0.0859375 24.320312 0 23.28125 0 L 5.6875 0 C 3.613281 0 2.398438 -0.5625 2.046875 -1.6875 C 1.867188 -2.164062 1.78125 -2.921875 1.78125 -3.953125 L 1.78125 -28.65625 C 1.78125 -30.164062 2.0625 -31.195312 2.625 -31.75 C 3.1875 -32.300781 4.253906 -32.578125 5.828125 -32.578125 L 23.328125 -32.578125 C 24.015625 -32.578125 24.523438 -32.550781 24.859375 -32.5 C 25.203125 -32.457031 25.597656 -32.316406 26.046875 -32.078125 C 26.835938 -31.671875 27.234375 -30.519531 27.234375 -28.625 C 27.234375 -26.539062 26.6875 -25.320312 25.59375 -24.96875 C 25.09375 -24.789062 24.320312 -24.703125 23.28125 -24.703125 L 9.640625 -24.703125 L 9.640625 -20.21875 L 18.4375 -20.21875 C 19.125 -20.21875 19.632812 -20.191406 19.96875 -20.140625 C 20.3125 -20.097656 20.707031 -19.960938 21.15625 -19.734375 C 21.957031 -19.316406 22.359375 -18.160156 22.359375 -16.265625 C 22.359375 -14.191406 21.789062 -12.976562 20.65625 -12.625 C 20.15625 -12.445312 19.390625 -12.359375 18.359375 -12.359375 L 9.640625 -12.359375 Z M 9.640625 -7.859375" transform="translate(690.23 962.024)"/></g></g></g><g fill="#FF5757"><g><g><path d="M 9.640625 -6.578125 L 21.734375 -6.578125 C 22.710938 -6.578125 23.421875 -6.460938 23.859375 -6.234375 C 24.304688 -6.015625 24.601562 -5.664062 24.75 -5.1875 C 24.894531 -4.71875 24.96875 -4.09375 24.96875 -3.3125 C 24.96875 -2.53125 24.894531 -1.898438 24.75 -1.421875 C 24.601562 -0.953125 24.351562 -0.625 24 -0.4375 C 23.4375 -0.144531 22.664062 0 21.6875 0 L 5.6875 0 C 3.613281 0 2.398438 -0.5625 2.046875 -1.6875 C 1.867188 -2.164062 1.78125 -2.921875 1.78125 -3.953125 L 1.78125 -28.65625 C 1.78125 -29.34375 1.800781 -29.851562 1.84375 -30.1875 C 1.882812 -30.53125 2.023438 -30.925781 2.265625 -31.375 C 2.679688 -32.175781 3.835938 -32.578125 5.734375 -32.578125 C 7.804688 -32.578125 9.035156 -32.023438 9.421875 -30.921875 C 9.566406 -30.421875 9.640625 -29.65625 9.640625 -28.625 Z M 9.640625 -6.578125" transform="translate(719.908 962.024)"/></g></g></g><g fill="#FF5757"><g><g><path d="M 17.0625 -32.96875 C 21.445312 -32.96875 25.253906 -31.382812 28.484375 -28.21875 C 31.710938 -25.050781 33.328125 -21.117188 33.328125 -16.421875 C 33.328125 -11.722656 31.785156 -7.722656 28.703125 -4.421875 C 25.617188 -1.117188 21.828125 0.53125 17.328125 0.53125 C 12.828125 0.53125 9 -1.097656 5.84375 -4.359375 C 2.6875 -7.617188 1.109375 -11.5 1.109375 -16 C 1.109375 -18.457031 1.550781 -20.757812 2.4375 -22.90625 C 3.332031 -25.050781 4.519531 -26.847656 6 -28.296875 C 7.476562 -29.753906 9.179688 -30.894531 11.109375 -31.71875 C 13.035156 -32.550781 15.019531 -32.96875 17.0625 -32.96875 Z M 8.96875 -16.21875 C 8.96875 -13.582031 9.820312 -11.441406 11.53125 -9.796875 C 13.238281 -8.148438 15.140625 -7.328125 17.234375 -7.328125 C 19.335938 -7.328125 21.234375 -8.125 22.921875 -9.71875 C 24.617188 -11.320312 25.46875 -13.472656 25.46875 -16.171875 C 25.46875 -18.867188 24.613281 -21.03125 22.90625 -22.65625 C 21.207031 -24.289062 19.304688 -25.109375 17.203125 -25.109375 C 15.097656 -25.109375 13.195312 -24.285156 11.5 -22.640625 C 9.8125 -20.992188 8.96875 -18.851562 8.96875 -16.21875 Z M 8.96875 -16.21875" transform="translate(747.32 962.024)"/></g></g></g><g fill="#FF5757"><g><g><path d="M 25.8125 -25.984375 C 26.582031 -24.421875 26.96875 -22.675781 26.96875 -20.75 C 26.96875 -18.820312 26.582031 -17.082031 25.8125 -15.53125 C 25.039062 -13.976562 24.050781 -12.742188 22.84375 -11.828125 C 20.382812 -9.921875 17.835938 -8.96875 15.203125 -8.96875 L 9.640625 -8.96875 L 9.640625 -3.953125 C 9.640625 -3.273438 9.617188 -2.765625 9.578125 -2.421875 C 9.535156 -2.078125 9.394531 -1.6875 9.15625 -1.25 C 8.738281 -0.445312 7.582031 -0.046875 5.6875 -0.046875 C 3.613281 -0.046875 2.398438 -0.59375 2.046875 -1.6875 C 1.867188 -2.1875 1.78125 -2.957031 1.78125 -4 L 1.78125 -28.65625 C 1.78125 -29.34375 1.800781 -29.851562 1.84375 -30.1875 C 1.882812 -30.53125 2.023438 -30.925781 2.265625 -31.375 C 2.679688 -32.175781 3.835938 -32.578125 5.734375 -32.578125 L 15.234375 -32.578125 C 17.847656 -32.578125 20.382812 -31.628906 22.84375 -29.734375 C 24.050781 -28.804688 25.039062 -27.554688 25.8125 -25.984375 Z M 15.234375 -16.84375 C 16.128906 -16.84375 17.003906 -17.164062 17.859375 -17.8125 C 18.722656 -18.46875 19.15625 -19.445312 19.15625 -20.75 C 19.15625 -22.050781 18.722656 -23.035156 17.859375 -23.703125 C 17.003906 -24.367188 16.117188 -24.703125 15.203125 -24.703125 L 9.640625 -24.703125 L 9.640625 -16.84375 Z M 15.234375 -16.84375" transform="translate(783.085 962.024)"/></g></g></g><g fill="#FF5757"><g><g><path d="M 9.640625 -7.859375 L 23.328125 -7.859375 C 24.015625 -7.859375 24.523438 -7.835938 24.859375 -7.796875 C 25.203125 -7.753906 25.597656 -7.613281 26.046875 -7.375 C 26.835938 -6.957031 27.234375 -5.800781 27.234375 -3.90625 C 27.234375 -1.832031 26.6875 -0.617188 25.59375 -0.265625 C 25.09375 -0.0859375 24.320312 0 23.28125 0 L 5.6875 0 C 3.613281 0 2.398438 -0.5625 2.046875 -1.6875 C 1.867188 -2.164062 1.78125 -2.921875 1.78125 -3.953125 L 1.78125 -28.65625 C 1.78125 -30.164062 2.0625 -31.195312 2.625 -31.75 C 3.1875 -32.300781 4.253906 -32.578125 5.828125 -32.578125 L 23.328125 -32.578125 C 24.015625 -32.578125 24.523438 -32.550781 24.859375 -32.5 C 25.203125 -32.457031 25.597656 -32.316406 26.046875 -32.078125 C 26.835938 -31.671875 27.234375 -30.519531 27.234375 -28.625 C 27.234375 -26.539062 26.6875 -25.320312 25.59375 -24.96875 C 25.09375 -24.789062 24.320312 -24.703125 23.28125 -24.703125 L 9.640625 -24.703125 L 9.640625 -20.21875 L 18.4375 -20.21875 C 19.125 -20.21875 19.632812 -20.191406 19.96875 -20.140625 C 20.3125 -20.097656 20.707031 -19.960938 21.15625 -19.734375 C 21.957031 -19.316406 22.359375 -18.160156 22.359375 -16.265625 C 22.359375 -14.191406 21.789062 -12.976562 20.65625 -12.625 C 20.15625 -12.445312 19.390625 -12.359375 18.359375 -12.359375 L 9.640625 -12.359375 Z M 9.640625 -7.859375" transform="translate(812.497 962.024)"/></g></g></g><g fill="#FF5757"><g><g><path d="M 26.703125 -5.515625 C 27.148438 -4.441406 27.375 -3.671875 27.375 -3.203125 C 27.375 -2.078125 26.457031 -1.128906 24.625 -0.359375 C 23.675781 0.0546875 22.910156 0.265625 22.328125 0.265625 C 21.753906 0.265625 21.28125 0.125 20.90625 -0.15625 C 20.539062 -0.4375 20.265625 -0.722656 20.078125 -1.015625 C 19.785156 -1.578125 18.632812 -4.257812 16.625 -9.0625 L 15.234375 -8.96875 L 9.640625 -8.96875 L 9.640625 -3.953125 C 9.640625 -3.273438 9.617188 -2.765625 9.578125 -2.421875 C 9.535156 -2.078125 9.394531 -1.6875 9.15625 -1.25 C 8.738281 -0.445312 7.582031 -0.046875 5.6875 -0.046875 C 3.613281 -0.046875 2.398438 -0.59375 2.046875 -1.6875 C 1.867188 -2.1875 1.78125 -2.957031 1.78125 -4 L 1.78125 -28.65625 C 1.78125 -29.34375 1.800781 -29.851562 1.84375 -30.1875 C 1.882812 -30.53125 2.023438 -30.925781 2.265625 -31.375 C 2.679688 -32.175781 3.835938 -32.578125 5.734375 -32.578125 L 15.328125 -32.578125 C 17.929688 -32.578125 20.46875 -31.628906 22.9375 -29.734375 C 24.113281 -28.804688 25.085938 -27.554688 25.859375 -25.984375 C 26.628906 -24.421875 27.015625 -22.675781 27.015625 -20.75 C 27.015625 -17.40625 25.90625 -14.648438 23.6875 -12.484375 C 24.332031 -10.910156 25.335938 -8.585938 26.703125 -5.515625 Z M 9.640625 -16.84375 L 15.328125 -16.84375 C 16.191406 -16.84375 17.050781 -17.164062 17.90625 -17.8125 C 18.769531 -18.46875 19.203125 -19.445312 19.203125 -20.75 C 19.203125 -22.050781 18.769531 -23.035156 17.90625 -23.703125 C 17.050781 -24.367188 16.160156 -24.703125 15.234375 -24.703125 L 9.640625 -24.703125 Z M 9.640625 -16.84375" transform="translate(842.176 962.024)"/></g></g></g><path fill="#FF5757" d="M 473.570312 726.363281 C 473.570312 710.117188 460.582031 696.785156 444.296875 696.785156 L 262.910156 696.785156 L 262.910156 696.996094 C 247.246094 697.621094 234.878906 710.535156 234.878906 726.363281 C 234.878906 742.195312 247.453125 755.109375 262.910156 755.734375 L 262.910156 755.945312 L 444.296875 755.945312 C 460.378906 755.945312 473.570312 742.613281 473.570312 726.363281"/><path fill="#FFDE59" d="M 423.59375 797.363281 C 423.59375 781.117188 410.734375 767.785156 394.613281 767.785156 L 262.601562 767.785156 L 262.601562 767.996094 C 247.089844 768.617188 234.84375 781.53125 234.84375 797.363281 C 234.84375 813.191406 247.292969 826.105469 262.601562 826.730469 L 262.601562 826.9375 L 394.613281 826.9375 C 410.53125 826.9375 423.59375 813.609375 423.59375 797.363281"/><path fill="#FF5757" d="M 395.015625 868.359375 C 395.015625 852.113281 382.066406 838.785156 365.832031 838.785156 L 262.820312 838.785156 L 262.820312 838.992188 C 247.199219 839.617188 234.867188 852.53125 234.867188 868.359375 C 234.867188 884.1875 247.402344 897.101562 262.820312 897.726562 L 262.820312 897.933594 L 365.832031 897.933594 C 381.863281 897.933594 395.015625 884.605469 395.015625 868.359375"/><path fill="#FFDE59" d="M 359.300781 939.355469 C 359.300781 923.109375 346.332031 909.777344 330.066406 909.777344 L 262.875 909.777344 L 262.875 909.984375 C 247.226562 910.609375 234.875 923.523438 234.875 939.355469 C 234.875 955.1875 247.433594 968.101562 262.875 968.726562 L 262.875 968.933594 L 330.066406 968.933594 C 346.125 968.933594 359.300781 955.605469 359.300781 939.355469"/></svg>